<?xml version="1.0" encoding="utf-8"?>
<!-- Generator: Adobe Illustrator 26.3.1, SVG Export Plug-In . SVG Version: 6.00 Build 0)  -->
<svg version="1.1" id="Layer_1" xmlns="http://www.w3.org/2000/svg" xmlns:xlink="http://www.w3.org/1999/xlink" x="0px" y="0px"
	 viewBox="0 0 146.9 134.2" style="enable-background:new 0 0 146.9 134.2;" xml:space="preserve">
<style type="text/css">
	.st0{fill:none;stroke:#F26826;stroke-width:3;stroke-miterlimit:10;}
	.st1{fill:none;stroke:#F26826;stroke-width:3;stroke-linecap:round;stroke-miterlimit:10;}
	.st2{fill:#F26826;}
	.st3{fill:none;stroke:#F37123;stroke-width:0.2;stroke-miterlimit:10;}
</style>
<g id="Group_85" transform="translate(-398.479 -3019.683)">
	<path id="Path_158" class="st0" d="M421.9,3096.3c-1.7-8.8-1-17.8,2-26.2c7.5-21.8,28.7-35.8,51.7-34.2"/>
	<path id="Path_159" class="st0" d="M522.4,3077.8c1.6,8.7,0.9,17.6-2,26c-7.7,22.2-29.6,36.3-53,34.2"/>
	<path id="Path_160" class="st1" d="M468.2,3027.8l8.2,7.9l-8.2,7.9"/>
	<path id="Path_161" class="st1" d="M476.9,3146.3l-8.2-7.9l7.9-7.9"/>
	<path id="Path_162" class="st2" d="M437.3,3100c5.6,0,10.1,4.5,10.1,10.1c0,5.6-4.5,10.1-10.1,10.1s-10.1-4.5-10.1-10.1
		C427.1,3104.6,431.7,3100,437.3,3100L437.3,3100"/>
	<path id="Path_163" class="st2" d="M454.3,3140.9v-5.7c0-1.7-0.5-3.4-1.2-5c-2.7-4.7-8.7-6.4-15.6-6.4s-12.9,1.7-15.6,6.4
		c-0.9,1.5-1.3,3.2-1.2,5v5.7H454.3z"/>
	<path id="Path_164" class="st2" d="M505.8,3029.5c5.6,0,10.1,4.5,10.1,10.1c0,5.6-4.5,10.1-10.1,10.1s-10.1-4.5-10.1-10.1
		c0,0,0,0,0,0C495.7,3034,500.2,3029.5,505.8,3029.5"/>
	<circle id="Ellipse_12" class="st3" cx="505.8" cy="3039.6" r="10.1"/>
	<path id="Path_165" class="st2" d="M522.7,3070.1v-5.7c0-1.7-0.5-3.4-1.2-5c-2.7-4.7-8.7-6.4-15.6-6.4s-12.9,1.7-15.6,6.4
		c-0.9,1.5-1.3,3.2-1.2,5v5.7H522.7z"/>
	<path id="Path_166" class="st3" d="M522.7,3070.1v-5.7c0-1.7-0.5-3.4-1.2-5c-2.7-4.7-8.7-6.4-15.6-6.4s-12.9,1.7-15.6,6.4
		c-0.9,1.5-1.3,3.2-1.2,5v5.7H522.7z"/>
</g>
</svg>
