<?xml version="1.0" encoding="utf-8"?>
<!-- Generator: Adobe Illustrator 26.3.1, SVG Export Plug-In . SVG Version: 6.00 Build 0)  -->
<svg version="1.1" id="Layer_1" xmlns="http://www.w3.org/2000/svg" xmlns:xlink="http://www.w3.org/1999/xlink" x="0px" y="0px"
	 viewBox="0 0 149.3 119.7" style="enable-background:new 0 0 149.3 119.7;" xml:space="preserve">
<style type="text/css">
	.st0{clip-path:url(#SVGID_00000097498805962595290080000000842179828945459868_);}
	.st1{fill:#F26826;}
</style>
<g>
	<defs>
		<rect id="SVGID_1_" x="19.4" y="14.3" width="111.8" height="91.7"/>
	</defs>
	<clipPath id="SVGID_00000031175062931049053340000014823128409649742985_">
		<use xlink:href="#SVGID_1_"  style="overflow:visible;"/>
	</clipPath>
	<g id="Group_79" transform="translate(0 0)" style="clip-path:url(#SVGID_00000031175062931049053340000014823128409649742985_);">
		<path id="Path_143" class="st1" d="M108.3,20c9.5,0,17.2,7.7,17.2,17.2s-7.7,17.2-17.2,17.2s-17.2-7.7-17.2-17.2c0,0,0,0,0,0
			C91.2,27.7,98.9,20,108.3,20 M108.3,14.3c-12.6,0-22.9,10.3-22.9,22.9s10.3,22.9,22.9,22.9s22.9-10.3,22.9-22.9
			S121,14.3,108.3,14.3C108.3,14.3,108.3,14.3,108.3,14.3"/>
		<path id="Path_144" class="st1" d="M37.7,106c-3,0-5.8-1.9-6.8-4.7l-11-29.8c-1.4-3.8,0.5-7.9,4.3-9.3c0,0,0,0,0,0l11.3-4.2
			c3.8-1.4,7.9,0.5,9.3,4.3l0.6,1.7l10.4,28.2c1.4,3.8-0.6,7.9-4.3,9.3l-11.3,4.2C39.3,105.8,38.5,106,37.7,106 M38,63.2
			c-0.2,0-0.4,0-0.5,0.1l-11.3,4.2c-0.8,0.3-1.2,1.2-0.9,2c0,0,0,0,0,0l11,29.8c0.3,0.8,1.2,1.2,2,0.9L49.5,96
			c0.4-0.1,0.7-0.4,0.9-0.8c0.2-0.4,0.2-0.8,0-1.2l-2.2-6l-8.8-23.8C39.2,63.6,38.6,63.2,38,63.2"/>
		<path id="Path_145" class="st1" d="M106.3,46l-23.6,8.7c2.7-0.6,5.5,1.2,6.1,3.9c0.5,2.5-0.8,5-3.2,5.8l-3.2,1.2
			c2.6-1,5.6,0.4,6.5,3c1,2.6-0.4,5.6-3,6.5l-3.2,1.2c2.7-0.9,5.6,0.5,6.5,3.1c0.9,2.6-0.4,5.5-3,6.4l-3.7,1.3
			c-0.3,0.1-0.5,0.2-0.8,0.3v0c-9.2,3.5-21.7,7.5-28.8,4.8l-2-5.4l-8.2-22.2c0.6-2.5,1.3-4.9,2.3-7.2c0,0,3.8-9,16.8-12.9
			c2.6-0.8,5.8,1.6,6.8,4.2l0.3-0.1l1.1-0.4c0.2-0.1,0.3-0.1,0.5-0.2l9.1-3.3l23.2-8.5c2.7-1,5.6,0.4,6.6,3
			C110.3,42.1,108.9,45,106.3,46"/>
	</g>
</g>
</svg>
