<?xml version="1.0" encoding="utf-8"?>
<!-- Generator: Adobe Illustrator 26.3.1, SVG Export Plug-In . SVG Version: 6.00 Build 0)  -->
<svg version="1.1" id="Layer_1" xmlns="http://www.w3.org/2000/svg" xmlns:xlink="http://www.w3.org/1999/xlink" x="0px" y="0px"
	 viewBox="0 0 168.6 105.3" style="enable-background:new 0 0 168.6 105.3;" xml:space="preserve">
<style type="text/css">
	.st0{clip-path:url(#SVGID_00000011012159689103745540000001435191568975178632_);}
	.st1{fill:#F26826;}
</style>
<g>
	<defs>
		<rect id="SVGID_1_" x="10.5" y="13.4" width="146.9" height="82.8"/>
	</defs>
	<clipPath id="SVGID_00000109719987964575462040000005767033191819405697_">
		<use xlink:href="#SVGID_1_"  style="overflow:visible;"/>
	</clipPath>
	<g id="Group_83" transform="translate(0 0)" style="clip-path:url(#SVGID_00000109719987964575462040000005767033191819405697_);">
		<path id="Path_148" class="st1" d="M141.3,96.1h-106C21.6,96,10.5,84.9,10.6,71.2c0.1-13.6,11.1-24.5,24.6-24.6h0.2
			c4.5-22.4,26.3-36.9,48.7-32.4c11.7,2.4,21.8,9.7,27.8,20c0.2,0,0.4,0,0.6,0c16.6,0,30.3,13.1,30.9,29.8c8.8,1.2,15,9.4,13.8,18.2
			c-1,7.2-6.7,12.8-13.9,13.8v0.1h-2L141.3,96.1z M138.8,91.6l2.3,0h0.1h0c6.4,0,11.6-5.2,11.6-11.6c0-6.4-5.2-11.6-11.6-11.6h-2.4
			l0.1-2.6c0-0.2,0-0.4,0-0.6c0-14.6-11.8-26.4-26.4-26.4c-0.5,0-1.1,0-1.8,0.1l-1.5,0.1l-0.7-1.3c-9.5-18-31.8-24.9-49.8-15.5
			c-10.4,5.5-17.5,15.5-19.3,27.1l-0.3,2.1l-2.1-0.2c-0.7-0.1-1.3-0.1-1.9-0.1C24.1,51.1,15,60.2,15,71.4s9.1,20.2,20.2,20.2
			L138.8,91.6L138.8,91.6z"/>
		<path id="Path_149" class="st1" d="M59.1,62.2c-0.1-0.2-0.3-0.3-0.4-0.5c-0.1-0.2-0.3-0.2-0.5-0.1c0,0-0.1,0-0.1,0.1
			c-0.2,0.2-0.4,0.4-0.7,0.7c-1.2,1.1-3,1.1-4.2,0c-0.3-0.2-0.5-0.5-0.7-0.7c-0.1-0.1-0.3-0.1-0.5,0c0,0,0,0-0.1,0.1
			c-0.1,0.2-0.3,0.4-0.4,0.5c0.8,1.1,2,1.8,3.4,1.9C56.6,64.3,58.2,63.6,59.1,62.2"/>
		<path id="Path_150" class="st1" d="M68.1,73.9c-0.1-1-0.1-2.3-0.2-3.8c-0.2-5.3-4.7-6-6.2-6.4c-0.8-0.2-1.6-0.6-2.2-1.1
			c-0.9,1.4-2.5,2.2-4.1,2.2c-0.1,0-0.3,0-0.4,0c-1.5-0.2-2.8-0.9-3.7-2.1c-0.6,0.5-1.4,0.9-2.2,1.1c-1.5,0.4-6,1.1-6.2,6.4
			c-0.1,1.5-0.1,2.7-0.2,3.8c-0.1,2.2,1.2,4.2,3.3,4.9l5.9,1.9c2.3,0.7,4.7,0.7,6.9,0l6-1.9C66.8,78.1,68.2,76.1,68.1,73.9"/>
		<path id="Path_151" class="st1" d="M55.5,47.3c0,0-0.1,0-0.1,0c0,0-0.1,0-0.1,0c-3.1-0.1-5.7,2.4-5.8,5.5c0,0.8,0.1,1.5,0.2,2.3
			c0.4,2.4,3,6.5,5.4,6.5c0.1,0,0.2,0,0.2,0l0.1,0l0,0l0.1,0c0.1,0,0.1,0,0.2,0c2.3,0,4.9-4.1,5.4-6.5c0.1-0.8,0.2-1.5,0.2-2.3
			C61.2,49.7,58.6,47.3,55.5,47.3"/>
		<path id="Path_152" class="st1" d="M115.3,62.2c-0.1-0.2-0.3-0.3-0.4-0.5c-0.1-0.2-0.3-0.2-0.5-0.1c0,0-0.1,0-0.1,0.1
			c-0.2,0.2-0.4,0.4-0.7,0.7c-1.2,1.1-3,1.1-4.2,0c-0.3-0.2-0.5-0.5-0.7-0.7c-0.1-0.1-0.4-0.1-0.5,0c0,0,0,0-0.1,0.1
			c-0.1,0.2-0.3,0.4-0.4,0.5c0.8,1.1,2,1.8,3.4,1.9C112.8,64.3,114.4,63.6,115.3,62.2"/>
		<path id="Path_153" class="st1" d="M124.3,73.9c-0.1-1-0.1-2.3-0.2-3.8c-0.2-5.3-4.7-6-6.2-6.4c-0.8-0.2-1.6-0.6-2.2-1.1
			c-0.9,1.4-2.5,2.2-4.1,2.2l0,0c-0.1,0-0.3,0-0.4,0c-1.5-0.2-2.8-0.9-3.7-2.1c-0.6,0.5-1.4,0.9-2.2,1.1c-1.5,0.4-6,1.1-6.2,6.4
			c-0.1,1.5-0.1,2.7-0.2,3.8c-0.1,2.2,1.2,4.2,3.3,4.9l5.9,1.9c2.3,0.7,4.7,0.7,6.9,0l6-1.9C123,78.1,124.4,76.1,124.3,73.9"/>
		<path id="Path_154" class="st1" d="M111.7,47.3c0,0-0.1,0-0.1,0c0,0-0.1,0-0.1,0c-3.1-0.1-5.7,2.4-5.8,5.5c0,0.8,0.1,1.5,0.2,2.3
			c0.4,2.4,3,6.5,5.4,6.5c0.1,0,0.2,0,0.2,0l0.1,0l0,0l0.1,0c0.1,0,0.1,0,0.2,0c2.3,0,4.9-4.1,5.4-6.5c0.1-0.8,0.2-1.5,0.2-2.3
			C117.4,49.7,114.8,47.3,111.7,47.3"/>
		<path id="Path_155" class="st1" d="M87.7,48.6c-0.1-0.2-0.3-0.3-0.4-0.5C87.2,48,87,47.9,86.8,48c0,0-0.1,0-0.1,0.1
			c-0.2,0.2-0.4,0.4-0.7,0.7c-1.2,1.1-3,1.1-4.2,0c-0.3-0.2-0.5-0.5-0.7-0.7c-0.1-0.1-0.4-0.1-0.5,0c0,0,0,0-0.1,0.1
			c-0.1,0.2-0.3,0.4-0.4,0.5c0.8,1.1,2,1.8,3.4,1.9C85.2,50.8,86.8,50,87.7,48.6"/>
		<path id="Path_156" class="st1" d="M96.6,60.3c-0.1-1-0.1-2.3-0.2-3.8c-0.2-5.3-4.7-6-6.2-6.4C89.4,50,88.7,49.6,88,49
			c-0.9,1.4-2.5,2.2-4.1,2.2l0,0c-0.1,0-0.3,0-0.4,0C82,51,80.7,50.2,79.8,49c-0.6,0.5-1.4,0.9-2.2,1.1c-1.5,0.4-6,1.1-6.2,6.4
			c-0.1,1.5-0.1,2.7-0.2,3.8c-0.1,2.2,1.2,4.2,3.3,4.9l5.9,1.9c2.3,0.7,4.7,0.7,6.9,0l6-1.9C95.4,64.5,96.8,62.5,96.6,60.3"/>
		<path id="Path_157" class="st1" d="M84,33.7c0,0-0.1,0-0.1,0c0,0-0.1,0-0.1,0c-3.1-0.1-5.7,2.4-5.8,5.5c0,0.8,0.1,1.5,0.2,2.3
			c0.4,2.4,3,6.5,5.4,6.5c0.1,0,0.2,0,0.2,0l0.1,0l0,0l0.1,0c0.1,0,0.1,0,0.2,0c2.3,0,4.9-4.1,5.4-6.5c0.1-0.8,0.2-1.5,0.2-2.3
			C89.8,36.1,87.2,33.7,84,33.7"/>
	</g>
</g>
</svg>
