<?xml version="1.0" encoding="utf-8"?>
<!-- Generator: Adobe Illustrator 26.3.1, SVG Export Plug-In . SVG Version: 6.00 Build 0)  -->
<svg version="1.1" id="Layer_1" xmlns="http://www.w3.org/2000/svg" xmlns:xlink="http://www.w3.org/1999/xlink" x="0px" y="0px"
	 viewBox="0 0 156.6 146.2" style="enable-background:new 0 0 156.6 146.2;" xml:space="preserve">
<style type="text/css">
	.st0{fill:none;stroke:#F26826;stroke-width:3;stroke-miterlimit:10;}
	.st1{fill:none;}
</style>
<g id="Group_76" transform="translate(-746.765 -2083)">
	<path id="Path_135" class="st0" d="M815.8,2191.6h-45c-1,0-1.8-0.8-1.8-1.8v-80c0-1,0.8-1.8,1.8-1.8h15"/>
	<path id="Path_136" class="st0" d="M845.7,2108h15.1c1,0,1.8,0.8,1.8,1.8v42"/>
	<line id="Line_3" class="st0" x1="768.9" y1="2133.7" x2="862.6" y2="2133.7"/>
	<path id="Path_137" class="st0" d="M800.9,2115c-0.1,0.8-0.8,1.3-1.6,1.2h-10.1c-0.8,0.1-1.5-0.4-1.6-1.2v-14.9
		c0.1-0.8,0.8-1.3,1.6-1.2h10.1c0.8-0.1,1.5,0.4,1.6,1.2L800.9,2115L800.9,2115z"/>
	<path id="Path_138" class="st0" d="M843.9,2115c-0.1,0.8-0.8,1.3-1.6,1.2h-10.1c-0.8,0.1-1.5-0.4-1.6-1.2v-14.9
		c0.1-0.8,0.8-1.3,1.6-1.2h10.1c0.8-0.1,1.5,0.4,1.6,1.2L843.9,2115z"/>
	<rect id="Rectangle_47" x="766.6" y="2096.6" class="st1" width="117.2" height="119.7"/>
	<line id="Line_4" class="st0" x1="802.7" y1="2108" x2="828.9" y2="2108"/>
	<path id="Path_139" class="st0" d="M853,2156.9c15.7,0,28.5,12.8,28.5,28.5s-12.8,28.5-28.5,28.5c-15.7,0-28.5-12.8-28.5-28.5
		C824.6,2169.7,837.3,2156.9,853,2156.9z"/>
	<line id="Line_5" class="st0" x1="852.6" y1="2173.7" x2="852.6" y2="2191.8"/>
	<line id="Line_6" class="st0" x1="869.3" y1="2190.5" x2="851.2" y2="2190.5"/>
</g>
</svg>
