<?xml version="1.0" encoding="utf-8"?>
<!-- Generator: Adobe Illustrator 26.3.1, SVG Export Plug-In . SVG Version: 6.00 Build 0)  -->
<svg version="1.1" id="Layer_1" xmlns="http://www.w3.org/2000/svg" xmlns:xlink="http://www.w3.org/1999/xlink" x="0px" y="0px"
	 viewBox="0 0 125.3 126.9" style="enable-background:new 0 0 125.3 126.9;" xml:space="preserve">
<style type="text/css">
	.st0{clip-path:url(#SVGID_00000033364492979489658750000008813602739992056251_);}
	.st1{fill:#F26826;}
</style>
<g>
	<defs>
		<rect id="SVGID_1_" x="15.4" y="10.7" width="95" height="106"/>
	</defs>
	<clipPath id="SVGID_00000142869520831305353960000002278391412911411628_">
		<use xlink:href="#SVGID_1_"  style="overflow:visible;"/>
	</clipPath>
	<g id="Group_81" transform="translate(0 0)" style="clip-path:url(#SVGID_00000142869520831305353960000002278391412911411628_);">
		<path id="Path_147" class="st1" d="M104.4,74.2c-4.7-2.7-10.8-1.8-14.5,2.2l-15.8-9.1c0.7-2.2,0.7-4.6,0-6.9l15.8-9.1
			c4.4,4.8,11.9,5,16.6,0.6s5-11.9,0.6-16.6s-11.9-5-16.6-0.6c-3.3,3.1-4.5,7.7-3.2,12.1l-15.8,9.1c-1.6-1.7-3.7-2.9-6-3.4V34
			c6.3-1.5,10.3-7.8,8.8-14.1S66.5,9.6,60.2,11s-10.3,7.8-8.8,14.1c1,4.4,4.4,7.8,8.8,8.8v18.3c-2.3,0.5-4.4,1.7-6,3.4l-15.8-9.1
			c1.9-6.2-1.6-12.8-7.8-14.7c-6.2-1.9-12.8,1.6-14.7,7.8s1.6,12.8,7.8,14.7c4.3,1.3,9,0.1,12.1-3.2l15.8,9.1
			c-0.7,2.2-0.7,4.6,0,6.9l-15.8,9.1c-4.4-4.8-11.9-5-16.6-0.6c-4.8,4.4-5,11.9-0.6,16.6s11.9,5,16.6,0.6c3.3-3.1,4.5-7.7,3.2-12.1
			l15.8-9.1c1.6,1.7,3.7,2.9,6,3.4v18.3c-6.3,1.5-10.3,7.8-8.8,14.1c1.5,6.3,7.8,10.3,14.1,8.8s10.3-7.8,8.8-14.1
			c-1-4.4-4.4-7.8-8.8-8.8V75.2c2.3-0.5,4.4-1.7,6-3.4l15.8,9.1c-1.9,6.2,1.6,12.8,7.8,14.7c6.2,1.9,12.8-1.6,14.7-7.8
			C111.4,82.6,109.2,76.9,104.4,74.2"/>
	</g>
</g>
</svg>
