<?xml version="1.0" encoding="utf-8"?>
<!-- Generator: Adobe Illustrator 26.3.1, SVG Export Plug-In . SVG Version: 6.00 Build 0)  -->
<svg version="1.1" id="Layer_1" xmlns="http://www.w3.org/2000/svg" xmlns:xlink="http://www.w3.org/1999/xlink" x="0px" y="0px"
	 viewBox="0 0 318 78.7" style="enable-background:new 0 0 318 78.7;" xml:space="preserve">
<style type="text/css">
	.st0{fill:#F26929;}
</style>
<g id="Atlona_Logo_Panduit_Company__Line_OR-BL" transform="translate(-21.5 -64.9)">
	<g id="Group_3" transform="translate(82.849 81.916)">
		<g id="Group_1" transform="translate(0 0)">
			<path id="Path_1" d="M191.2,9.8c-1,0-3.4,0.3-3.4,2.8V24c-2.2-2.5-14.7-14.5-24.1-14.5c-0.9,0-1.8,0.1-2.7,0.3l-1.4,0.4l-0.1,0
				V28h0.4c0.9,0,3.6-0.2,3.6-2.8V13.3c0.3,0,0.5-0.1,0.8-0.1c1.8,0,5,1.5,7.7,3c11.7,6.5,11.3,12,18.6,11.8c0.5,0,1.3-0.2,1.3-0.5
				V9.9h-0.1C191.6,9.8,191.4,9.8,191.2,9.8z"/>
			<path id="Path_2" d="M80.9,9.9H52.2c-0.8,0-1.5,0.3-2,0.8c-0.7,0.9-1,2.1-0.9,3.2V14h13.1v10.4c0,3.3,2.8,3.6,4,3.6
				c0.4,0,0.6,0,0.6,0h0.1V14.1H78c0.8,0,1.6-0.3,2.2-0.9c0.6-0.9,0.9-2,0.8-3.1L80.9,9.9z"/>
			<path id="Path_3" d="M111,23.7H93.2c-0.4,0-0.8-0.1-1.2-0.4c-0.3-0.2-0.5-0.6-0.5-1V13c0-3-3.3-3.2-4.3-3.2h-0.4v12.5
				c0,0.8,0.2,1.5,0.5,2.2c0.4,0.7,0.8,1.2,1.4,1.7c0.6,0.5,1.3,0.9,2.1,1.2c0.8,0.3,1.7,0.4,2.5,0.4h21.2v-0.1
				c0.1-1.1-0.3-2.1-0.9-3C113,24,112,23.7,111,23.7z"/>
			<path id="Path_4" d="M147.2,9.6h-19.1c-5,0-9.1,4.1-9.1,9.1v3.7c0,3.1,2.5,5.5,5.5,5.5h19.1c5,0,9.1-4.1,9.1-9.1v-3.7
				C152.8,12.1,150.3,9.6,147.2,9.6z M123.1,18.7c0-2.8,2.3-5.1,5.1-5.1h19.1c0.9,0,1.6,0.7,1.6,1.6v3.7c0,2.8-2.3,5.1-5.1,5.1
				h-19.1c-0.9,0-1.6-0.7-1.6-1.6L123.1,18.7z"/>
			<path id="Path_5" d="M46.2,20.8l-7.7-9c-0.6-0.7-1.3-1.2-2.1-1.5c-0.9-0.4-1.9-0.6-2.9-0.6c-1,0-2,0.2-2.9,0.6
				c-0.8,0.3-1.6,0.9-2.1,1.5l-7.7,9c-0.1,0.1-4.9,5.8-5.5,6.4c-0.2,0.2-0.3,0.4-0.2,0.6c0.1,0.2,0.4,0.2,0.4,0.2H16
				c1.6,0,4.3-0.1,5.2-1.1c2.1-2.2,5.7-6.6,5.8-6.6l4.7-5.4c0.2-0.3,0.5-0.5,0.8-0.7c0.3-0.2,0.6-0.4,1-0.4c0.4,0,0.7,0.1,1,0.4
				c0.3,0.2,0.5,0.4,0.8,0.7l4.7,5.4c0,0.1,3.8,4.4,5.9,6.6c0.9,0.9,3.6,1.1,5.2,1.1h0.6c0,0,0.3,0,0.4-0.2c0.1-0.2,0-0.4-0.2-0.6
				C51.2,26.6,46.2,20.8,46.2,20.8z"/>
			<path id="Path_6" d="M227.9,20.8l-7.7-9c-0.6-0.7-1.3-1.2-2.1-1.5c-0.9-0.4-1.9-0.6-2.9-0.6c-1,0-2,0.2-2.9,0.6
				c-0.8,0.3-1.6,0.9-2.1,1.5l-7.7,9c-0.1,0.1-4.9,5.8-5.5,6.4c-0.2,0.2-0.3,0.4-0.2,0.6c0.1,0.2,0.4,0.2,0.4,0.2h0.6
				c1.6,0,4.3-0.1,5.2-1.1c2.1-2.2,5.7-6.6,5.8-6.6l4.7-5.4c0.2-0.3,0.5-0.5,0.8-0.7c0.3-0.2,0.6-0.4,1-0.4c0.4,0,0.7,0.1,1,0.4
				c0.3,0.2,0.5,0.4,0.8,0.7l4.7,5.4c0,0.1,3.8,4.4,5.9,6.6c0.9,0.9,3.7,1.1,5.2,1.1h0.6c0,0,0.3,0,0.4-0.2c0.1-0.2,0-0.4-0.2-0.6
				C232.9,26.6,227.9,20.8,227.9,20.8z"/>
		</g>
		<g id="Group_2" transform="translate(223.674 15.205)">
			<path id="Path_7" d="M17.8,12.3c-0.6,0.6-1.6,0.7-2.3,0.1c0,0,0,0-0.1-0.1c-0.6-0.6-0.6-1.7,0-2.3c0.3-0.3,0.7-0.5,1.2-0.5
				c0.4,0,0.8,0.2,1.2,0.5c0.3,0.3,0.5,0.7,0.5,1.2C18.3,11.6,18.1,12,17.8,12.3z M15.7,10.2c-0.5,0.5-0.5,1.4,0,2s1.4,0.5,2,0
				s0.5-1.4,0-2c-0.3-0.3-0.6-0.4-1-0.4C16.3,9.8,15.9,9.9,15.7,10.2z M16.6,10.3c0.2,0,0.3,0,0.5,0.1c0.2,0.1,0.3,0.3,0.3,0.5
				c0,0.1-0.1,0.3-0.2,0.4c-0.1,0-0.2,0.1-0.2,0.1c0.1,0,0.2,0.1,0.3,0.2c0.1,0.1,0.1,0.2,0.1,0.3v0.3c0,0.1,0,0.1,0,0.1v0h-0.3
				v-0.2c0-0.2-0.1-0.4-0.2-0.4c-0.1,0-0.2-0.1-0.4-0.1h-0.2v0.7H16v-1.8L16.6,10.3L16.6,10.3z M17,10.6c-0.1-0.1-0.3-0.1-0.4-0.1
				h-0.3v0.7h0.3c0.1,0,0.2,0,0.3,0c0.1,0,0.2-0.2,0.2-0.3C17.1,10.7,17,10.6,17,10.6L17,10.6z"/>
		</g>
	</g>
	<g id="Group_4" transform="translate(21.5 64.9)">
		<path id="Path_8" class="st0" d="M41.2,9.6C26.8,9.6,15,21.3,15,35.8S26.8,62,41.2,62c14.5,0,26.2-11.7,26.2-26.2c0,0,0,0,0,0
			C67.5,21.3,55.7,9.6,41.2,9.6C41.2,9.6,41.2,9.6,41.2,9.6z M40.2,44.1c-0.3,0.2-0.6,0.5-0.8,0.8l-8.5,9.7c-2.3-1.3-4.4-3-6.1-5.1
			l15-17.3c0,0,0,0-0.1,0c0.2-0.2,0.4-0.5,0.6-0.7l0.1-0.1c0.1-0.1,0.2-0.2,0.2-0.2c2.3-2.4,4.4-4.2,6.4-4.8c-2.7,1.4-5,5.5-5,5.5
			c0.9,0.1,1.8,0.5,2.4,1.2l13.7,16.2c-1.6,2.1-3.6,3.9-5.9,5.2l-6.9-8l-1.5-1.7c-0.3-0.3-0.7-0.6-1-0.9c-0.4-0.3-0.8-0.5-1.3-0.5
			c-0.5,0-0.9,0.2-1.3,0.5C40.3,44,40.2,44.1,40.2,44.1z M50.5,26.6L50.5,26.6l-1.3-1.5c-0.9-1-2-1.8-3.2-2.3
			c-1.3-0.6-2.8-0.8-4.2-0.8c-1.5,0-3,0.3-4.4,0.9c-1.3,0.5-2.4,1.4-3.3,2.4L20.7,40.7c-0.3-1.5-0.5-3-0.5-4.5c0-11.6,9.4-21,21-21
			s21,9.4,21,21c0,1.2-0.1,2.4-0.3,3.6L50.5,26.6z"/>
	</g>
	<g id="Group_7" transform="translate(155.599 110.652)">
		<g id="Group_5" transform="translate(13.97 0)">
			<path id="Path_9" d="M38.4,15.6l-1.3-3.3h-3.8v5.8l-2.5-5.8h-3c-0.4-1.6-1.7-2.7-4-2.7H15V21h5.6v-3.7H24c0.6,0,1.2-0.1,1.7-0.3
				l-1.8,4h3.2l0.7-1.6h3l0.7,1.6h4.7v-3.3l1.5,3.3h3.5v-8.7h-2.7L38.4,15.6L38.4,15.6z M22.5,14.8c0,0.3-0.3,0.6-0.6,0.6
				c0,0,0,0,0,0h-1v-4.1h1c0.3,0,0.6,0.2,0.6,0.5c0,0,0,0.1,0,0.1V14.8z M28.3,17.6l1-2.4l1,2.4L28.3,17.6z M59,21h3v-8.7h-3L59,21z
				 M55.4,18.5c0,0.2,0,0.6-0.3,0.6h-0.8c-0.3,0-0.4-0.3-0.4-0.6v-6.2h-3.1v6.9c0,1.7,2,1.8,2,1.8h3.4c0.9,0,1.7-0.8,1.7-1.7
				c0,0,0,0,0-0.1v-6.9h-2.6L55.4,18.5 M62.6,12.3v1.8h2.1V21h2.9v-6.9h2.1v-1.8H62.6z M48.3,12.3h-6v8.8h6c0.9,0,1.6-0.2,1.6-1.2
				v-6.4C49.8,12.7,49.1,12.3,48.3,12.3 M47,18.3c0,0.4-0.2,0.6-0.5,0.6h-0.9v-4.8h0.8c0.3,0,0.5,0.2,0.6,0.5c0,0,0,0,0,0V18.3z"/>
			<path id="Path_10" d="M71.2,13.7H71v-1h0.5c0.2,0,0.4,0.1,0.4,0.3c0,0.1-0.1,0.2-0.2,0.2c0.1,0,0.1,0.1,0.1,0.2v0.2
				c0,0.1,0,0.1,0.1,0.1v0h-0.2c0-0.1,0-0.2,0-0.2c0-0.1-0.1-0.2-0.1-0.2c0,0,0,0,0,0h-0.4L71.2,13.7L71.2,13.7z M71.2,13.2h0.4
				c0.1,0,0.2,0,0.2-0.2s-0.1-0.2-0.2-0.2h-0.4L71.2,13.2z"/>
			<path id="Path_11" d="M71.5,14.1c-0.5,0-0.9-0.5-0.9-1c0-0.5,0.5-0.9,1-0.9c0.5,0,0.9,0.4,0.9,0.9C72.5,13.7,72,14.1,71.5,14.1
				 M71.5,12.4c-0.4,0-0.7,0.4-0.7,0.8c0,0.4,0.4,0.7,0.8,0.7c0.4,0,0.7-0.4,0.7-0.8C72.3,12.8,72,12.4,71.5,12.4
				C71.5,12.4,71.5,12.4,71.5,12.4"/>
		</g>
		<g id="Group_6" transform="translate(0 2.717)">
			<path id="Path_12" d="M23.5,18c-0.3,0.2-0.7,0.2-1.1,0.2c-0.3,0-0.7-0.1-0.9-0.3c-0.2-0.3-0.4-0.6-0.3-1c-0.4,0.4-0.9,0.8-1.4,1
				c-0.6,0.2-1.2,0.3-1.8,0.3c-0.4,0-0.8,0-1.2-0.1c-0.3-0.1-0.7-0.2-1-0.4c-0.3-0.2-0.5-0.4-0.6-0.7c-0.3-0.7-0.3-1.5,0-2.2
				c0.2-0.3,0.4-0.5,0.7-0.7c0.3-0.2,0.6-0.3,1-0.4c0.4-0.1,0.7-0.2,1.1-0.2c0.4-0.1,0.8-0.1,1.2-0.2c0.3,0,0.6-0.1,1-0.2
				c0.2-0.1,0.5-0.2,0.7-0.3c0.2-0.1,0.3-0.4,0.2-0.6c0-0.3,0-0.5-0.2-0.7c-0.1-0.2-0.3-0.3-0.5-0.4c-0.2-0.1-0.4-0.2-0.7-0.2
				c-0.2,0-0.5-0.1-0.7-0.1c-0.5,0-1.1,0.1-1.6,0.3c-0.4,0.3-0.7,0.7-0.7,1.2h-1.5c0-0.5,0.1-0.9,0.4-1.3c0.2-0.3,0.5-0.6,0.9-0.9
				c0.4-0.2,0.8-0.4,1.2-0.5c0.5-0.1,1-0.1,1.5-0.1c0.4,0,0.8,0,1.2,0.1c0.4,0,0.8,0.2,1.1,0.3c0.7,0.3,1.2,1.1,1.1,1.8v4.2
				c0,0.2,0,0.5,0.1,0.7c0,0.1,0.2,0.2,0.4,0.2c0.2,0,0.3,0,0.5-0.1L23.5,18L23.5,18z M21.1,13.7c-0.2,0.1-0.5,0.2-0.7,0.3
				c-0.3,0.1-0.6,0.1-1,0.1s-0.7,0.1-1,0.1c-0.3,0.1-0.6,0.1-0.9,0.2c-0.3,0.1-0.5,0.2-0.7,0.4c-0.2,0.2-0.3,0.5-0.2,0.8
				c0,0.2,0,0.4,0.1,0.5c0.1,0.2,0.2,0.3,0.4,0.4c0.2,0.1,0.4,0.2,0.5,0.2c0.2,0,0.4,0.1,0.7,0.1c0.4,0,0.9-0.1,1.3-0.2
				c0.3-0.1,0.6-0.3,0.9-0.5c0.2-0.2,0.4-0.4,0.5-0.6c0.1-0.2,0.2-0.4,0.2-0.6L21.1,13.7L21.1,13.7z"/>
			<path id="Path_13" d="M95.1,11.2c-0.4-0.3-1-0.5-1.5-0.4c-0.5,0-0.9,0.1-1.3,0.3c-0.3,0.2-0.6,0.4-0.9,0.7
				c-0.2,0.3-0.4,0.6-0.5,1c-0.1,0.4-0.1,0.8-0.1,1.2c0,0.4,0.1,0.8,0.1,1.1c0.1,0.3,0.3,0.7,0.5,1c0.2,0.3,0.5,0.5,0.8,0.7
				c0.4,0.2,0.8,0.3,1.2,0.2c0.6,0,1.2-0.1,1.7-0.5c0.4-0.4,0.7-0.9,0.8-1.5h1.5c-0.1,0.9-0.6,1.8-1.3,2.4c-0.8,0.6-1.8,0.9-2.7,0.8
				c-0.6,0-1.2-0.1-1.8-0.3c-0.5-0.2-1-0.5-1.3-0.9c-0.4-0.4-0.6-0.8-0.8-1.3c-0.2-0.5-0.3-1.1-0.3-1.7c0-0.6,0.1-1.2,0.3-1.7
				c0.2-0.5,0.4-1,0.8-1.4c0.4-0.4,0.8-0.7,1.3-0.9c0.6-0.2,1.2-0.3,1.9-0.3c0.5,0,1,0.1,1.5,0.2c0.4,0.1,0.8,0.3,1.2,0.5
				c0.3,0.2,0.6,0.5,0.9,0.9c0.2,0.4,0.4,0.8,0.4,1.3h-1.5C95.8,11.9,95.5,11.5,95.1,11.2z"/>
			<path id="Path_14" d="M98.9,12.2c0.2-0.5,0.5-1,0.9-1.4c0.4-0.4,0.9-0.7,1.4-0.9c1.2-0.4,2.6-0.4,3.8,0c0.5,0.2,1,0.5,1.4,0.9
				c0.4,0.4,0.7,0.9,0.9,1.4c0.2,0.5,0.3,1.1,0.3,1.7c0,0.6-0.1,1.1-0.3,1.7c-0.4,1-1.2,1.9-2.2,2.3c-1.2,0.4-2.6,0.4-3.8,0
				c-1-0.4-1.9-1.2-2.2-2.3c-0.2-0.5-0.3-1.1-0.3-1.7C98.6,13.3,98.7,12.7,98.9,12.2z M100.4,15.2c0.3,0.7,0.8,1.3,1.5,1.6
				c0.7,0.3,1.5,0.3,2.2,0c0.3-0.1,0.7-0.3,0.9-0.6c0.3-0.3,0.5-0.6,0.6-1c0.3-0.9,0.3-1.8,0-2.6c-0.1-0.4-0.3-0.7-0.6-1
				c-0.2-0.3-0.6-0.5-0.9-0.6c-0.7-0.3-1.5-0.3-2.2,0c-0.3,0.1-0.7,0.3-0.9,0.6c-0.3,0.3-0.5,0.6-0.6,1
				C100.2,13.4,100.2,14.4,100.4,15.2L100.4,15.2z"/>
			<path id="Path_15" d="M110.6,9.7V11h0c0.7-0.9,1.8-1.5,2.9-1.4c0.5,0,1.1,0.1,1.5,0.3c0.5,0.2,0.8,0.6,1,1.1
				c0.3-0.4,0.7-0.8,1.2-1c0.5-0.2,1.1-0.4,1.6-0.4c0.4,0,0.8,0,1.2,0.1c0.3,0.1,0.7,0.2,0.9,0.4c0.3,0.2,0.5,0.4,0.6,0.7
				c0.2,0.3,0.2,0.7,0.2,1.1v6h-1.5v-5.4c0-0.2,0-0.5-0.1-0.7c0-0.2-0.1-0.4-0.3-0.6c-0.1-0.2-0.3-0.3-0.5-0.4
				c-0.3-0.1-0.6-0.1-0.9-0.1c-0.6,0-1.2,0.2-1.7,0.6c-0.4,0.4-0.7,1-0.6,1.5V18h-1.5v-5.4c0-0.2,0-0.5-0.1-0.7
				c0-0.2-0.1-0.4-0.3-0.6c-0.1-0.2-0.3-0.3-0.5-0.4c-0.3-0.1-0.5-0.1-0.8-0.1c-0.4,0-0.8,0.1-1.1,0.2c-0.3,0.1-0.5,0.3-0.7,0.6
				c-0.2,0.2-0.3,0.4-0.4,0.7c-0.1,0.2-0.1,0.4-0.1,0.6v5.1h-1.5V9.8L110.6,9.7L110.6,9.7z"/>
			<path id="Path_16" d="M125.7,9.7v1.1h0c0.2-0.5,0.7-0.8,1.2-1c0.6-0.2,1.1-0.3,1.7-0.3c0.6,0,1.3,0.1,1.8,0.4
				c0.5,0.2,0.9,0.5,1.3,0.9c0.4,0.4,0.6,0.9,0.8,1.4c0.4,1.1,0.4,2.2,0,3.3c-0.2,0.5-0.4,1-0.8,1.4c-0.4,0.4-0.8,0.7-1.3,0.9
				c-0.6,0.2-1.2,0.3-1.8,0.3c-0.2,0-0.5,0-0.7-0.1c-0.3,0-0.6-0.1-0.8-0.2c-0.3-0.1-0.5-0.2-0.8-0.4c-0.2-0.2-0.4-0.4-0.6-0.6h0
				v4.2h-1.5V9.7H125.7z M131,12.7c-0.1-0.4-0.3-0.7-0.5-1c-0.2-0.3-0.5-0.5-0.9-0.7c-0.4-0.2-0.8-0.3-1.3-0.2
				c-0.4,0-0.9,0.1-1.3,0.3c-0.3,0.2-0.6,0.4-0.9,0.7c-0.2,0.3-0.4,0.6-0.5,1c-0.1,0.4-0.1,0.7-0.1,1.1c0,0.4,0.1,0.8,0.2,1.2
				c0.1,0.4,0.3,0.7,0.5,1c0.2,0.3,0.5,0.5,0.9,0.7c0.4,0.2,0.9,0.3,1.3,0.3c0.4,0,0.9-0.1,1.3-0.3c0.3-0.2,0.6-0.4,0.8-0.7
				c0.2-0.3,0.4-0.7,0.5-1c0.1-0.4,0.1-0.8,0.1-1.2C131.2,13.4,131.2,13,131,12.7L131,12.7z"/>
			<path id="Path_17" d="M142.6,18c-0.3,0.2-0.7,0.2-1.1,0.2c-0.3,0-0.7-0.1-0.9-0.3c-0.2-0.3-0.4-0.6-0.3-1c-0.4,0.4-0.9,0.8-1.4,1
				c-0.6,0.2-1.2,0.3-1.8,0.3c-0.4,0-0.8,0-1.2-0.1c-0.3-0.1-0.7-0.2-1-0.4c-0.3-0.2-0.5-0.4-0.6-0.7c-0.3-0.7-0.3-1.5,0-2.2
				c0.2-0.3,0.4-0.5,0.7-0.7c0.3-0.2,0.6-0.3,1-0.4c0.4-0.1,0.7-0.2,1.1-0.2c0.4-0.1,0.8-0.1,1.2-0.2c0.3,0,0.6-0.1,1-0.2
				c0.2-0.1,0.5-0.2,0.7-0.3c0.2-0.1,0.3-0.4,0.2-0.6c0-0.3,0-0.5-0.2-0.7c-0.1-0.2-0.3-0.3-0.5-0.4c-0.2-0.1-0.4-0.2-0.7-0.2
				c-0.2,0-0.5-0.1-0.7-0.1c-0.5,0-1.1,0.1-1.6,0.3c-0.4,0.3-0.7,0.7-0.7,1.2h-1.5c0-0.5,0.1-0.9,0.4-1.3c0.2-0.3,0.5-0.6,0.9-0.9
				c0.4-0.2,0.8-0.4,1.2-0.5c0.5-0.1,1-0.1,1.5-0.1c0.4,0,0.8,0,1.2,0.1c0.4,0,0.8,0.2,1.1,0.3c0.7,0.3,1.2,1.1,1.1,1.8v4.2
				c0,0.2,0,0.5,0.1,0.7c0,0.1,0.2,0.2,0.4,0.2c0.2,0,0.3,0,0.5-0.1L142.6,18L142.6,18z M140.2,13.7c-0.2,0.1-0.5,0.2-0.7,0.3
				c-0.3,0.1-0.6,0.1-1,0.1s-0.7,0.1-1,0.1c-0.3,0.1-0.6,0.1-0.9,0.2c-0.3,0.1-0.5,0.2-0.7,0.4c-0.2,0.2-0.3,0.5-0.2,0.8
				c0,0.2,0,0.4,0.1,0.5c0.1,0.2,0.2,0.3,0.4,0.4c0.2,0.1,0.4,0.2,0.5,0.2c0.2,0,0.4,0.1,0.7,0.1c0.4,0,0.9-0.1,1.3-0.2
				c0.3-0.1,0.6-0.3,0.9-0.5c0.2-0.2,0.4-0.4,0.5-0.6c0.1-0.2,0.2-0.4,0.2-0.6L140.2,13.7L140.2,13.7z"/>
			<path id="Path_18" d="M145.3,9.7v1.3h0c0.6-1,1.8-1.6,2.9-1.5c0.5,0,1,0.1,1.5,0.2c0.4,0.1,0.7,0.3,1,0.6
				c0.2,0.3,0.4,0.6,0.5,0.9c0.1,0.4,0.2,0.8,0.1,1.2V18h-1.5v-5.6c0-0.5-0.2-0.9-0.5-1.2c-0.4-0.3-0.9-0.5-1.3-0.4
				c-0.4,0-0.8,0.1-1.2,0.2c-0.3,0.1-0.6,0.3-0.8,0.5c-0.2,0.2-0.4,0.5-0.5,0.8c-0.1,0.3-0.2,0.7-0.2,1V18h-1.5V9.7L145.3,9.7z"/>
			<path id="Path_19" d="M157.3,19.1c-0.1,0.4-0.3,0.7-0.5,1c-0.2,0.3-0.3,0.5-0.5,0.7c-0.2,0.2-0.4,0.3-0.7,0.4
				c-0.3,0.1-0.6,0.1-0.9,0.1c-0.2,0-0.3,0-0.5,0c-0.2,0-0.4-0.1-0.5-0.1v-1.2c0.1,0.1,0.3,0.1,0.4,0.1c0.1,0,0.3,0,0.4,0.1
				c0.5,0,1-0.3,1.2-0.8l0.6-1.4l-3.6-8.2h1.7l2.6,6.7h0l2.6-6.7h1.6L157.3,19.1z"/>
		</g>
	</g>
</g>
</svg>
