<?xml version="1.0" encoding="utf-8"?>
<!-- Generator: Adobe Illustrator 26.3.1, SVG Export Plug-In . SVG Version: 6.00 Build 0)  -->
<svg version="1.1" id="Layer_1" xmlns="http://www.w3.org/2000/svg" xmlns:xlink="http://www.w3.org/1999/xlink" x="0px" y="0px"
	 viewBox="0 0 185.5 66.7" style="enable-background:new 0 0 185.5 66.7;" xml:space="preserve">
<style type="text/css">
	.st0{fill:#FFFFFF;}
	.st1{fill:#F47933;}
	.st2{fill:#CD6632;}
	.st3{fill:#4D4D4E;}
</style>
<g id="Group_29" transform="translate(0 40.063)">
	<g id="Group_21" transform="translate(0 12.725)">
		<path id="Path_62" class="st0" d="M29.5-4.6c-0.4,0-0.8-0.3-1-0.6L17.9-18.9c-0.2-0.2-0.3-0.5-0.3-0.8c0.1-0.7,0.7-1.2,1.4-1.2
			c0.4,0,0.8,0.2,1,0.5l9.6,12.5l9.5-12.6c0.2-0.3,0.5-0.4,0.9-0.4c0.4,0,0.8,0.1,1.1,0.3c0.3,0.2,0.5,0.5,0.5,0.8
			c0,0.3-0.1,0.5-0.3,0.8L30.6-5.3C30.4-4.9,30-4.7,29.5-4.6z"/>
		<path id="Path_63" class="st0" d="M19-20.8c0.4,0,0.7,0.2,1,0.5l9.6,12.5l0,0.1l0-0.1l9.5-12.5c0.2-0.2,0.5-0.4,0.9-0.4
			c0.4,0,0.7,0.1,1.1,0.3c0.3,0.2,0.5,0.5,0.5,0.8c0,0.3-0.1,0.5-0.3,0.7L30.6-5.3c-0.2,0.4-0.6,0.6-1.1,0.7c-0.4,0-0.8-0.2-1-0.6
			L18-18.9l0,0c-0.2-0.2-0.3-0.5-0.3-0.7c0-0.3,0.2-0.6,0.4-0.8C18.4-20.7,18.7-20.8,19-20.8 M19-20.9c-0.7,0-1.4,0.6-1.4,1.3
			c0,0.3,0.1,0.6,0.3,0.8L28.5-5.2c0.2,0.4,0.6,0.6,1,0.6c0.5,0,0.9-0.3,1.1-0.7l10.7-13.6c0.2-0.2,0.3-0.5,0.3-0.8
			c0-0.7-0.9-1.2-1.6-1.2c-0.3,0-0.7,0.1-0.9,0.4L29.6-7.9L20-20.3C19.8-20.7,19.4-20.9,19-20.9L19-20.9z"/>
	</g>
	<g id="Group_22" transform="translate(70.843 13.781)">
		<path id="Path_64" class="st0" d="M-19.6-5.9c-2.6,0-4.7-0.4-6-1.2c-1.3-0.7-2-2.1-2-3.6v-6.1c-0.1-1.5,0.7-2.8,1.9-3.6
			c1.3-0.8,3.3-1.2,5.9-1.2h6.4c2.2,0,3.9,0.3,5,1c1.1,0.7,1.7,1.9,1.7,3.1v3.8c0,0.9-0.4,1.3-1.3,1.3h-16.9v2
			c0,1.4,1.5,2.2,4.4,2.2h3.1c0.8,0,1.2,0.4,1.2,1.1c0,0.8-0.4,1.2-1.2,1.2L-19.6-5.9z M-20.3-19.2c-2.9,0-4.4,0.8-4.4,2.3v2.2h15.4
			v-2.3c0-1.4-1.1-2.2-3.3-2.2H-20.3z"/>
		<path id="Path_65" class="st0" d="M-13.2-21.5c2.2,0,3.9,0.3,5,1c0.5,0.3,0.9,0.8,1.2,1.3c0.3,0.6,0.4,1.2,0.4,1.8v3.8
			c0,0.9-0.4,1.2-1.2,1.2h-16.9v2c0,1.4,1.5,2.2,4.4,2.2h3.1c0.8,0,1.2,0.3,1.2,1.1c0,0.8-0.4,1.2-1.2,1.2h-2.4
			c-2.6,0-4.6-0.4-6-1.2C-26.2-7.5-26.7-8-27-8.6c-0.3-0.6-0.5-1.4-0.5-2.1v-6c0-0.7,0.2-1.4,0.5-2.1c0.3-0.6,0.8-1.1,1.5-1.5
			c1.3-0.8,3.3-1.2,5.9-1.2L-13.2-21.5 M-24.8-14.7h15.5v-2.4c0-0.7-0.3-1.3-0.9-1.6c-0.6-0.4-1.4-0.5-2.5-0.5h-7.7
			c-1.5,0-2.6,0.2-3.3,0.6c-0.7,0.3-1.1,1-1.1,1.7L-24.8-14.7 M-13.2-21.5h-6.4c-5.3,0-7.9,1.6-7.9,4.8v6c0,3.2,2.6,4.9,8,4.9h2.4
			c0.8,0,1.2-0.4,1.2-1.2s-0.4-1.2-1.2-1.2h-3.1c-2.9,0-4.4-0.7-4.4-2.1v-2h16.8c0.9,0,1.3-0.4,1.3-1.3v-3.8
			C-6.6-20.1-8.8-21.5-13.2-21.5L-13.2-21.5z M-24.7-14.7v-2.2c0-1.5,1.5-2.3,4.4-2.3h7.7c2.2,0,3.3,0.7,3.3,2.1v2.3L-24.7-14.7z"/>
	</g>
	<g id="Group_23" transform="translate(138.613)">
		<path id="Path_66" class="st0" d="M-69.4,8.1c-1,0-1.4-0.4-1.4-1.3v-18.3c0-0.8,0.5-1.2,1.4-1.2c1,0,1.4,0.4,1.4,1.2V6.8
			C-68,7.7-68.4,8.1-69.4,8.1z"/>
		<path id="Path_67" class="st0" d="M-69.4-12.7c0.9,0,1.4,0.4,1.4,1.2V6.8c0,0.8-0.4,1.2-1.4,1.2c-1,0-1.4-0.4-1.4-1.2v-18.3
			C-70.8-12.3-70.3-12.7-69.4-12.7 M-69.4-12.7c-1,0-1.4,0.4-1.4,1.3V6.8c0,0.9,0.5,1.3,1.4,1.3c0.9,0,1.4-0.4,1.4-1.3v-18.3
			C-67.9-12.3-68.4-12.7-69.4-12.7z"/>
	</g>
	<g id="Group_24" transform="translate(157.004 13.781)">
		<path id="Path_68" class="st0" d="M-75-5.9c-2.5,0-4.4-0.4-5.7-1.2c-1.2-0.7-1.9-2.1-1.9-3.5v-6.1c0-1.6,0.6-2.8,1.9-3.6
			c1.3-0.8,3.2-1.2,5.7-1.2h5.7c2.4,0,4.3,0.4,5.5,1.2c1.2,0.8,1.8,2,1.8,3.6v6.1c0,3.1-2.5,4.7-7.4,4.7L-75-5.9z M-75.3-19.2
			c-2.9,0-4.4,0.9-4.4,2.5v6.1c0,0.8,0.4,1.5,1.1,1.8c0.7,0.4,1.8,0.6,3.3,0.6h6.5c2.7,0,4-0.8,4-2.4v-6.3c0-1.5-1.4-2.3-4-2.3
			H-75.3z"/>
		<path id="Path_69" class="st0" d="M-69.2-21.5c2.4,0,4.3,0.4,5.5,1.2c1.2,0.8,1.8,2,1.8,3.6v6.1c0,3.1-2.5,4.7-7.3,4.7H-75
			c-2.5,0-4.4-0.4-5.6-1.2c-1.2-0.7-1.9-2.1-1.9-3.5v-6.1c0-0.7,0.1-1.5,0.5-2.1c0.3-0.6,0.8-1.1,1.4-1.5c1.3-0.8,3.2-1.2,5.7-1.2
			L-69.2-21.5 M-75.3-8.1h6.5c1.3,0,2.4-0.2,3-0.6c0.7-0.4,1.1-1.1,1-1.8v-6.3c0-0.7-0.4-1.4-1-1.7c-0.7-0.4-1.7-0.6-3-0.6h-6.5
			c-1.4,0-2.6,0.2-3.3,0.6c-0.7,0.4-1.2,1.1-1.1,1.9v6.1c0,0.8,0.4,1.5,1.1,1.8C-77.9-8.3-76.8-8.1-75.3-8.1 M-69.2-21.5h-5.7
			c-5.1,0-7.7,1.6-7.7,4.9v6.1c0,3.2,2.5,4.8,7.6,4.8h5.8c4.9,0,7.4-1.6,7.4-4.8v-6.1C-61.8-19.9-64.3-21.5-69.2-21.5L-69.2-21.5z
			 M-75.3-8.2c-2.9,0-4.4-0.8-4.4-2.4v-6.1c0-1.6,1.5-2.5,4.4-2.5h6.5c2.7,0,4,0.8,4,2.3v6.3c0,1.6-1.3,2.4-4,2.4L-75.3-8.2z"/>
	</g>
	<g id="Group_25" transform="translate(224.054 13.781)">
		<path id="Path_70" class="st0" d="M-117.6-5.9c-5.1,0-7.7-1.5-7.7-4.6v-6.5c0-1.5,0.6-2.7,1.7-3.4c1.2-0.8,2.9-1.1,5.3-1.1h10.5
			c0.9,0,1.3,0.4,1.3,1.1c0,0.8-0.4,1.2-1.3,1.2h-10.9c-2.5,0-3.8,0.7-3.8,2.2v6.4c0,0.8,0.4,1.5,1.1,1.8c0.7,0.4,1.8,0.6,3.3,0.6
			h10.3c0.8,0,1.2,0.4,1.2,1.2c0,0.7-0.4,1.1-1.2,1.1L-117.6-5.9z"/>
		<path id="Path_71" class="st0" d="M-107.8-21.5c0.9,0,1.3,0.3,1.3,1.1c0,0.8-0.4,1.2-1.3,1.2h-10.9c-2.6,0-3.9,0.8-3.9,2.2v6.4
			c0,0.8,0.4,1.5,1.1,1.8c0.7,0.4,1.8,0.6,3.3,0.6h10.3c0.8,0,1.1,0.4,1.1,1.2c0,0.7-0.4,1.1-1.1,1.1h-9.8c-2.6,0-4.5-0.4-5.8-1.2
			c-1.2-0.7-2-2-1.9-3.4v-6.5c0-0.7,0.1-1.4,0.4-2c0.3-0.6,0.8-1.1,1.3-1.4c1.2-0.8,2.9-1.1,5.3-1.1L-107.8-21.5 M-107.8-21.5h-10.5
			c-4.7,0-7,1.5-7,4.6v6.5c0,3.1,2.6,4.6,7.8,4.6h9.8c0.8,0,1.2-0.4,1.2-1.1c0-0.9-0.4-1.3-1.2-1.3h-10.3c-2.9,0-4.4-0.8-4.4-2.4
			V-17c0-1.4,1.3-2.2,3.8-2.2h10.9c0.9,0,1.3-0.4,1.3-1.2C-106.4-21.2-106.9-21.5-107.8-21.5L-107.8-21.5z"/>
	</g>
	<g id="Group_26" transform="translate(285.294 3.377)">
		<path id="Path_72" class="st0" d="M-162.4,4.7c-0.9,0-1.3-0.4-1.3-1.3V-9c0-0.8,0.4-1.2,1.3-1.2c1,0,1.5,0.4,1.5,1.2V3.5
			C-161,4.3-161.5,4.7-162.4,4.7z M-162.5-11.9c-1.2,0-1.8-0.5-1.8-1.5c0-1,0.6-1.5,1.8-1.5c1.3,0,2,0.5,2,1.5
			C-160.6-12.4-161.2-11.9-162.5-11.9z"/>
		<path id="Path_73" class="st0" d="M-162.5-14.8c1.3,0,1.9,0.5,1.9,1.5c0,1-0.6,1.4-1.9,1.4c-0.5,0-1-0.1-1.4-0.4
			c-0.3-0.3-0.5-0.7-0.4-1.1C-164.3-14.4-163.8-14.8-162.5-14.8 M-162.5-10.2c1,0,1.4,0.4,1.4,1.2V3.5c0,0.8-0.4,1.2-1.4,1.2
			c-0.9,0-1.3-0.4-1.3-1.2V-9C-163.7-9.8-163.3-10.2-162.5-10.2 M-162.5-14.9c-1.3,0-1.9,0.5-1.9,1.5c0,1,0.6,1.5,1.9,1.5
			c1.3,0,2-0.5,2-1.5C-160.5-14.4-161.2-14.9-162.5-14.9z M-162.5-10.2c-0.9,0-1.3,0.4-1.3,1.2V3.5c0,0.9,0.5,1.3,1.3,1.3
			c0.9,0,1.4-0.4,1.4-1.3V-9C-161-9.8-161.5-10.2-162.5-10.2L-162.5-10.2z"/>
	</g>
	<g id="Group_27" transform="translate(302.18)">
		<path id="Path_74" class="st0" d="M-171.1,8.1c-1,0-1.4-0.4-1.4-1.3V-5.4h-1.4c-0.8,0-1.2-0.4-1.2-1.2c0-0.7,0.4-1.1,1.2-1.1h1.4
			v-3.8c0-0.8,0.5-1.2,1.5-1.2c0.9,0,1.3,0.4,1.3,1.2v3.8h5.7c0.8,0,1.2,0.3,1.2,1.1c0,0.8-0.4,1.2-1.2,1.2h-5.7V6.8
			C-169.8,7.7-170.2,8.1-171.1,8.1z"/>
		<path id="Path_75" class="st0" d="M-171.1-12.7c0.9,0,1.3,0.4,1.3,1.2v3.8h5.8c0.8,0,1.1,0.3,1.1,1.1c0,0.8-0.4,1.1-1.1,1.1h-5.8
			V6.8c0,0.3-0.1,0.7-0.3,0.9c-0.3,0.2-0.6,0.3-1,0.3c-1,0-1.4-0.4-1.4-1.2V-5.5h-1.5c-0.8,0-1.1-0.4-1.1-1.2c0-0.7,0.3-1.1,1.1-1.1
			h1.5v-3.8C-172.5-12.3-172-12.7-171.1-12.7 M-171.1-12.7c-1,0-1.5,0.4-1.5,1.3v3.7h-1.4c-0.8,0-1.2,0.4-1.2,1.1
			c0,0.8,0.4,1.2,1.2,1.2h1.4V6.8c0,0.9,0.5,1.3,1.4,1.3c0.9,0,1.4-0.4,1.4-1.3V-5.4h5.7c0.8,0,1.2-0.4,1.2-1.2s-0.4-1.2-1.2-1.2
			h-5.7v-3.7C-169.7-12.3-170.2-12.7-171.1-12.7L-171.1-12.7z"/>
	</g>
	<g id="Group_28" transform="translate(343.108 13.157)">
		<path id="Path_76" class="st0" d="M-190.6,1.2c-0.7,0-1.1-0.4-1.1-1.2c0-0.7,0.3-1.1,1.1-1.1h3.8c2.3,0,3.5-0.7,3.5-2v-2.1h-10.6
			c-4.9,0-7.4-1.5-7.4-4.5v-10.2c0-0.8,0.4-1.2,1.4-1.2c0.9,0,1.4,0.4,1.4,1.2v10.2c0,1.5,1.4,2.2,4.1,2.2h11.1v-12.4
			c0-0.8,0.4-1.2,1.4-1.2c1,0,1.4,0.4,1.4,1.2v16.8c0,2.8-2.2,4.3-6.5,4.3H-190.6z"/>
		<path id="Path_77" class="st0" d="M-181.9-21.1c0.9,0,1.4,0.4,1.4,1.1v16.8c0,2.8-2.2,4.3-6.5,4.3h-3.6c-0.7,0-1-0.4-1-1.1
			c0-0.7,0.3-1.1,1-1.1h3.8c1.1,0,2-0.2,2.6-0.5c0.6-0.3,0.9-0.9,0.9-1.5v-2.2h-10.6c-2.5,0-4.3-0.4-5.6-1.1c-1.2-0.7-1.9-2-1.8-3.4
			v-10.2c0-0.8,0.4-1.1,1.4-1.1c0.9,0,1.4,0.4,1.4,1.1v10.2c0,1.5,1.4,2.2,4.1,2.2h11.1v-12.4C-183.2-20.7-182.8-21.1-181.9-21.1
			 M-181.9-21.1c-0.9,0-1.4,0.4-1.4,1.2v12.4h-11.1c-2.7,0-4.1-0.7-4.1-2.2v-10.2c0-0.8-0.5-1.2-1.4-1.2c-1,0-1.4,0.4-1.4,1.2v10.2
			c0,3,2.5,4.6,7.5,4.6h10.5v2.1c0,1.3-1.2,2-3.4,2h-3.8c-0.7,0-1.1,0.4-1.1,1.1c0,0.8,0.4,1.2,1.1,1.2h3.6c4.3,0,6.5-1.4,6.5-4.3
			v-16.8C-180.5-20.7-180.9-21.1-181.9-21.1L-181.9-21.1z"/>
	</g>
</g>
<g id="Group_30" transform="translate(175.747 0)">
	<path id="Path_78" class="st1" d="M-79.7,30.5l-12.2-4.7l8.9,1.3l-11.5-14.3l15,10.7l6,6.9L-79.7,30.5z"/>
	<path id="Path_79" class="st2" d="M-76,26.6l-2.8-3.4l-0.7-7.4L-76,26.6z"/>
</g>
<g id="Group_33" transform="translate(408.605 54.101)">
	<g id="Group_31">
		<path id="Path_80" class="st3" d="M-242.7-20.1v-1.4h-0.4v-0.2h1v0.2h-0.4v1.4H-242.7z"/>
		<path id="Path_81" class="st0" d="M-242.1-21.6v0.1h-0.4v1.4h-0.2v-1.4h-0.4v-0.1H-242.1 M-242-21.7h-1v0.2h0.4v1.4h0.3v-1.4h0.4
			V-21.7L-242-21.7z"/>
	</g>
	<g id="Group_32" transform="translate(3.409)">
		<path id="Path_82" class="st3" d="M-244.1-20.1v-0.5c0-0.4,0-0.7,0-1v0h-0.1l0,0l-0.3,1.5h-0.1l-0.3-1.5h-0.1v0c0,0.3,0,0.6,0,1
			v0.5h-0.3v-1.6h0.4l0.2,0.8c0,0.1,0,0.2,0.1,0.4v0h0.1l0,0c0-0.2,0-0.3,0-0.4l0.2-0.8h0.4v1.6L-244.1-20.1z"/>
		<path id="Path_83" class="st0" d="M-243.9-21.6v1.6h-0.2v-0.5c0-0.4,0-0.7,0-1l0-0.1h-0.1l0,0l-0.3,1.5h-0.1l-0.3-1.5l0,0h-0.1
			l0,0.1c0,0.3,0,0.6,0,1v0.5h-0.2v-1.6h0.4l0.2,0.7c0,0.1,0,0.2,0.1,0.4l0,0.1h0.1l0-0.1c0-0.2,0-0.3,0-0.4l0.2-0.7L-243.9-21.6
			 M-243.8-21.7h-0.5l-0.2,0.8c0,0.1,0,0.3,0,0.4h0c0-0.1,0-0.3-0.1-0.4l-0.2-0.8h-0.5v1.7h0.3v-0.5c0-0.3,0-0.7,0-1h0l0.3,1.5h0.2
			l0.3-1.5h0c0,0.3,0,0.7,0,1v0.5h0.3L-243.8-21.7L-243.8-21.7z"/>
	</g>
</g>
</svg>
