<?xml version="1.0" encoding="utf-8"?>
<!-- Generator: Adobe Illustrator 26.3.1, SVG Export Plug-In . SVG Version: 6.00 Build 0)  -->
<svg version="1.1" id="Layer_1" xmlns="http://www.w3.org/2000/svg" xmlns:xlink="http://www.w3.org/1999/xlink" x="0px" y="0px"
	 viewBox="0 0 233.7 57.1" style="enable-background:new 0 0 233.7 57.1;" xml:space="preserve">
<style type="text/css">
	.st0{clip-path:url(#SVGID_00000111897736644980681940000015584816546745981324_);}
	.st1{fill:#F26826;}
</style>
<g>
	<defs>
		<rect id="SVGID_1_" x="14.2" y="10.4" width="205.7" height="36.4"/>
	</defs>
	<clipPath id="SVGID_00000056388859870440366770000003959697167374293167_">
		<use xlink:href="#SVGID_1_"  style="overflow:visible;"/>
	</clipPath>
	<g id="Group_77" transform="translate(0 0)" style="clip-path:url(#SVGID_00000056388859870440366770000003959697167374293167_);">
		<path id="Path_140" class="st1" d="M20.9,45.4c-0.7,0.9-1.8,1.4-3,1.4c-1,0-2-0.4-2.7-1.1C14.5,45,14.1,44,14.2,43
			c0-0.8,0.2-1.7,0.8-2.3l19.4-26.1c2-2.6,5.1-4.1,8.4-4.1c1.6,0,3.1,0.4,4.5,1c1.4,0.7,2.6,1.6,3.5,2.9l19.4,25.9
			c0.3,0.4,0.6,0.8,0.8,1.2c0.2,0.5,0.3,1,0.3,1.5c0,2.1-1.7,3.8-3.8,3.8c0,0,0,0,0,0c-1.2,0-2.3-0.5-3-1.5L45.8,20.5
			c-0.4-0.5-0.9-1-1.4-1.4c-0.9-0.9-2.3-1-3.3-0.2c-0.1,0-0.1,0.1-0.2,0.2c-0.5,0.4-0.9,0.9-1.3,1.4L20.9,45.4z"/>
		<path id="Path_141" class="st1" d="M85.8,45.7c-1.5,1.5-3.9,1.5-5.4,0C79.6,45,79.2,44,79.2,43V15.8c0-1,0.4-2,1.1-2.7
			C81,12.4,82,12,83,12c0.5,0,1,0.1,1.4,0.3c0.4,0.2,0.9,0.5,1.3,0.8c2.8,2.5,5.7,4.9,8.8,7c2.1,1.5,4.4,2.8,6.8,3.8
			c1.8,0.8,3.8,1.3,5.8,1.6c1.9,0.2,3.9,0.3,5.8,0.3c1.9,0,3.9-0.1,5.8-0.3c2-0.2,3.9-0.8,5.7-1.6c2.4-1.1,4.6-2.3,6.7-3.8
			c3.1-2.2,6.1-4.6,8.9-7.1c0.7-0.7,1.7-1.1,2.7-1.1c1,0,2,0.4,2.7,1.1c0.7,0.7,1.1,1.7,1.1,2.7V43c0,2.1-1.7,3.8-3.8,3.8
			c-2.1,0-3.8-1.7-3.8-3.8l0,0V24.1c-2.2,1.8-4.5,3.4-6.9,4.8c-2.1,1.2-4.2,2.2-6.5,3.1c-2,0.8-4.1,1.3-6.3,1.6
			c-2.1,0.3-4.2,0.5-6.3,0.5c-2.2,0-4.4-0.2-6.6-0.5c-2.1-0.3-4.3-0.9-6.3-1.6c-2.2-0.8-4.4-1.9-6.4-3.1c-2.4-1.4-4.7-3-6.8-4.8V43
			C86.9,44,86.5,45,85.8,45.7"/>
		<path id="Path_142" class="st1" d="M161.1,32.4c-2.5-1.1-4.5-3.1-5.6-5.6c-0.6-1.3-0.9-2.7-0.8-4.1c0-1.4,0.3-2.8,0.8-4.2
			c1.1-2.5,3.1-4.5,5.6-5.6c1.3-0.6,2.7-0.9,4.2-0.8h48.4c1,0,2,0.4,2.7,1.1c0.7,0.7,1.1,1.7,1.1,2.7c0,1-0.4,2-1.1,2.7
			c-0.7,0.7-1.7,1.1-2.7,1.1h-48.6c-0.8,0-1.5,0.3-2.1,0.8c-0.6,0.5-0.9,1.3-0.9,2.1c0,0.8,0.3,1.5,0.9,2.1c0.6,0.6,1.3,0.9,2.1,0.9
			h44.1c1.4,0,2.9,0.3,4.2,0.8c2.6,1.1,4.6,3.1,5.7,5.7c0.6,1.3,0.8,2.8,0.8,4.2c0,1.4-0.3,2.8-0.8,4.1c-0.5,1.3-1.3,2.4-2.3,3.4
			c-1,1-2.1,1.7-3.4,2.2c-1.3,0.5-2.8,0.8-4.2,0.8h-48.4c-2.1,0-3.8-1.7-3.8-3.8c0-2.1,1.7-3.8,3.8-3.8h48.7c0.8,0,1.5-0.3,2.1-0.8
			c0.6-0.5,0.9-1.3,0.9-2c0-0.8-0.3-1.6-0.9-2.2c-0.5-0.6-1.3-0.9-2.1-0.9h-44.3C163.8,33.3,162.4,33,161.1,32.4"/>
	</g>
</g>
</svg>
